<?xml version="1.0" encoding="UTF-8" standalone="no"?>
<!-- Created with Inkscape (http://www.inkscape.org/) -->
<svg
   xmlns:svg="http://www.w3.org/2000/svg"
   xmlns="http://www.w3.org/2000/svg"
   version="1.0"
   width="214.66"
   height="16.629999"
   id="svg2"
   xml:space="preserve"><defs
     id="defs5"><clipPath
       id="clipPath17"><path
         d="M 0,0 L 1323.78,0 L 1323.78,666.142 L 0,666.142 L 0,0 z"
         id="path19" /></clipPath><clipPath
       id="clipPath55"><path
         d="M 901.588,604.63 C 901.588,604.63 894.898,604.63 894.898,597.94 L 894.898,597.94 L 894.898,572.201 C 894.898,572.201 894.898,565.511 901.588,565.511 L 901.588,565.511 L 979.37,565.511 C 979.37,565.511 986.06,565.511 986.06,572.201 L 986.06,572.201 L 986.06,597.94 C 986.06,597.94 986.06,604.63 979.37,604.63 L 979.37,604.63 L 901.588,604.63 z"
         id="path57" /></clipPath><clipPath
       id="clipPath67"><path
         d="M 0,0 L 1323.78,0 L 1323.78,666.142 L 0,666.142 L 0,0 z"
         id="path69" /></clipPath><clipPath
       id="clipPath85"><path
         d="M 573,55.525 L 850.795,55.525 L 850.795,84.581 L 573,84.581 L 573,55.525 z"
         id="path87" /></clipPath><clipPath
       id="clipPath97"><path
         d="M 573,55.525 L 850.795,55.525 L 850.795,84.581 L 573,84.581 L 573,55.525 z"
         id="path99" /></clipPath><clipPath
       id="clipPath109"><path
         d="M 573,55.525 L 850.795,55.525 L 850.795,84.581 L 573,84.581 L 573,55.525 z"
         id="path111" /></clipPath><clipPath
       id="clipPath121"><path
         d="M 573,55.525 L 850.795,55.525 L 850.795,84.581 L 573,84.581 L 573,55.525 z"
         id="path123" /></clipPath><clipPath
       id="clipPath133"><path
         d="M 573,55.525 L 850.795,55.525 L 850.795,84.581 L 573,84.581 L 573,55.525 z"
         id="path135" /></clipPath><clipPath
       id="clipPath145"><path
         d="M 573,55.525 L 850.795,55.525 L 850.795,84.581 L 573,84.581 L 573,55.525 z"
         id="path147" /></clipPath><clipPath
       id="clipPath157"><path
         d="M 573,55.525 L 850.795,55.525 L 850.795,84.581 L 573,84.581 L 573,55.525 z"
         id="path159" /></clipPath><clipPath
       id="clipPath169"><path
         d="M 573,55.525 L 850.795,55.525 L 850.795,84.581 L 573,84.581 L 573,55.525 z"
         id="path171" /></clipPath><clipPath
       id="clipPath181"><path
         d="M 573,55.525 L 850.795,55.525 L 850.795,84.581 L 573,84.581 L 573,55.525 z"
         id="path183" /></clipPath><clipPath
       id="clipPath193"><path
         d="M 573,55.525 L 850.795,55.525 L 850.795,84.581 L 573,84.581 L 573,55.525 z"
         id="path195" /></clipPath><clipPath
       id="clipPath205"><path
         d="M 573,55.525 L 850.795,55.525 L 850.795,84.581 L 573,84.581 L 573,55.525 z"
         id="path207" /></clipPath><clipPath
       id="clipPath217"><path
         d="M 573,55.525 L 850.795,55.525 L 850.795,84.581 L 573,84.581 L 573,55.525 z"
         id="path219" /></clipPath><clipPath
       id="clipPath229"><path
         d="M 573,55.525 L 850.795,55.525 L 850.795,84.581 L 573,84.581 L 573,55.525 z"
         id="path231" /></clipPath><clipPath
       id="clipPath241"><path
         d="M 573,55.525 L 850.795,55.525 L 850.795,84.581 L 573,84.581 L 573,55.525 z"
         id="path243" /></clipPath><clipPath
       id="clipPath253"><path
         d="M 573,55.525 L 850.795,55.525 L 850.795,84.581 L 573,84.581 L 573,55.525 z"
         id="path255" /></clipPath><clipPath
       id="clipPath265"><path
         d="M 573,55.525 L 850.795,55.525 L 850.795,84.581 L 573,84.581 L 573,55.525 z"
         id="path267" /></clipPath><clipPath
       id="clipPath277"><path
         d="M 573,55.525 L 850.795,55.525 L 850.795,84.581 L 573,84.581 L 573,55.525 z"
         id="path279" /></clipPath><clipPath
       id="clipPath289"><path
         d="M 573,55.525 L 850.795,55.525 L 850.795,84.581 L 573,84.581 L 573,55.525 z"
         id="path291" /></clipPath><clipPath
       id="clipPath301"><path
         d="M 573,55.525 L 850.795,55.525 L 850.795,84.581 L 573,84.581 L 573,55.525 z"
         id="path303" /></clipPath><clipPath
       id="clipPath313"><path
         d="M 573,55.525 L 850.795,55.525 L 850.795,84.581 L 573,84.581 L 573,55.525 z"
         id="path315" /></clipPath><clipPath
       id="clipPath325"><path
         d="M 573,55.525 L 850.795,55.525 L 850.795,84.581 L 573,84.581 L 573,55.525 z"
         id="path327" /></clipPath><clipPath
       id="clipPath337"><path
         d="M 573,55.525 L 850.795,55.525 L 850.795,84.581 L 573,84.581 L 573,55.525 z"
         id="path339" /></clipPath><clipPath
       id="clipPath349"><path
         d="M 573,55.525 L 850.795,55.525 L 850.795,84.581 L 573,84.581 L 573,55.525 z"
         id="path351" /></clipPath><clipPath
       id="clipPath361"><path
         d="M 573,55.525 L 850.795,55.525 L 850.795,84.581 L 573,84.581 L 573,55.525 z"
         id="path363" /></clipPath><clipPath
       id="clipPath373"><path
         d="M 573,55.525 L 850.795,55.525 L 850.795,84.581 L 573,84.581 L 573,55.525 z"
         id="path375" /></clipPath><clipPath
       id="clipPath385"><path
         d="M 573,55.525 L 850.795,55.525 L 850.795,84.581 L 573,84.581 L 573,55.525 z"
         id="path387" /></clipPath><clipPath
       id="clipPath431"><path
         d="M 992.527,59.953 L 1270.323,59.953 L 1270.323,109.1 L 992.527,109.1 L 992.527,59.953 z"
         id="path433" /></clipPath><clipPath
       id="clipPath443"><path
         d="M 992.527,59.953 L 1270.323,59.953 L 1270.323,109.1 L 992.527,109.1 L 992.527,59.953 z"
         id="path445" /></clipPath><clipPath
       id="clipPath455"><path
         d="M 992.527,59.953 L 1270.323,59.953 L 1270.323,109.1 L 992.527,109.1 L 992.527,59.953 z"
         id="path457" /></clipPath><clipPath
       id="clipPath467"><path
         d="M 992.527,59.953 L 1270.323,59.953 L 1270.323,109.1 L 992.527,109.1 L 992.527,59.953 z"
         id="path469" /></clipPath><clipPath
       id="clipPath479"><path
         d="M 992.527,59.953 L 1270.323,59.953 L 1270.323,109.1 L 992.527,109.1 L 992.527,59.953 z"
         id="path481" /></clipPath><clipPath
       id="clipPath491"><path
         d="M 992.527,59.953 L 1270.323,59.953 L 1270.323,109.1 L 992.527,109.1 L 992.527,59.953 z"
         id="path493" /></clipPath><clipPath
       id="clipPath503"><path
         d="M 992.527,59.953 L 1270.323,59.953 L 1270.323,109.1 L 992.527,109.1 L 992.527,59.953 z"
         id="path505" /></clipPath><clipPath
       id="clipPath515"><path
         d="M 992.527,59.953 L 1270.323,59.953 L 1270.323,109.1 L 992.527,109.1 L 992.527,59.953 z"
         id="path517" /></clipPath><clipPath
       id="clipPath527"><path
         d="M 992.527,59.953 L 1270.323,59.953 L 1270.323,109.1 L 992.527,109.1 L 992.527,59.953 z"
         id="path529" /></clipPath><clipPath
       id="clipPath539"><path
         d="M 992.527,59.953 L 1270.323,59.953 L 1270.323,109.1 L 992.527,109.1 L 992.527,59.953 z"
         id="path541" /></clipPath><clipPath
       id="clipPath551"><path
         d="M 992.527,59.953 L 1270.323,59.953 L 1270.323,109.1 L 992.527,109.1 L 992.527,59.953 z"
         id="path553" /></clipPath><clipPath
       id="clipPath563"><path
         d="M 992.527,59.953 L 1270.323,59.953 L 1270.323,109.1 L 992.527,109.1 L 992.527,59.953 z"
         id="path565" /></clipPath><clipPath
       id="clipPath575"><path
         d="M 992.527,59.953 L 1270.323,59.953 L 1270.323,109.1 L 992.527,109.1 L 992.527,59.953 z"
         id="path577" /></clipPath><clipPath
       id="clipPath587"><path
         d="M 992.527,59.953 L 1270.323,59.953 L 1270.323,109.1 L 992.527,109.1 L 992.527,59.953 z"
         id="path589" /></clipPath><clipPath
       id="clipPath599"><path
         d="M 992.527,59.953 L 1270.323,59.953 L 1270.323,109.1 L 992.527,109.1 L 992.527,59.953 z"
         id="path601" /></clipPath><clipPath
       id="clipPath611"><path
         d="M 992.527,59.953 L 1270.323,59.953 L 1270.323,109.1 L 992.527,109.1 L 992.527,59.953 z"
         id="path613" /></clipPath><clipPath
       id="clipPath623"><path
         d="M 992.527,59.953 L 1270.323,59.953 L 1270.323,109.1 L 992.527,109.1 L 992.527,59.953 z"
         id="path625" /></clipPath><clipPath
       id="clipPath635"><path
         d="M 992.527,59.953 L 1270.323,59.953 L 1270.323,109.1 L 992.527,109.1 L 992.527,59.953 z"
         id="path637" /></clipPath><clipPath
       id="clipPath647"><path
         d="M 992.527,59.953 L 1270.323,59.953 L 1270.323,109.1 L 992.527,109.1 L 992.527,59.953 z"
         id="path649" /></clipPath><clipPath
       id="clipPath659"><path
         d="M 992.527,59.953 L 1270.323,59.953 L 1270.323,109.1 L 992.527,109.1 L 992.527,59.953 z"
         id="path661" /></clipPath><clipPath
       id="clipPath671"><path
         d="M 992.527,59.953 L 1270.323,59.953 L 1270.323,109.1 L 992.527,109.1 L 992.527,59.953 z"
         id="path673" /></clipPath><clipPath
       id="clipPath683"><path
         d="M 992.527,59.953 L 1270.323,59.953 L 1270.323,109.1 L 992.527,109.1 L 992.527,59.953 z"
         id="path685" /></clipPath><clipPath
       id="clipPath695"><path
         d="M 992.527,59.953 L 1270.323,59.953 L 1270.323,109.1 L 992.527,109.1 L 992.527,59.953 z"
         id="path697" /></clipPath><clipPath
       id="clipPath707"><path
         d="M 992.527,59.953 L 1270.323,59.953 L 1270.323,109.1 L 992.527,109.1 L 992.527,59.953 z"
         id="path709" /></clipPath><clipPath
       id="clipPath719"><path
         d="M 992.527,59.953 L 1270.323,59.953 L 1270.323,109.1 L 992.527,109.1 L 992.527,59.953 z"
         id="path721" /></clipPath><clipPath
       id="clipPath731"><path
         d="M 992.527,59.953 L 1270.323,59.953 L 1270.323,109.1 L 992.527,109.1 L 992.527,59.953 z"
         id="path733" /></clipPath><clipPath
       id="clipPath771"><path
         d="M 0,0 L 1323.78,0 L 1323.78,666.142 L 0,666.142 L 0,0 z"
         id="path773" /></clipPath><clipPath
       id="clipPath1069"><path
         d="M 752.449,97.795 L 850.245,97.795 L 850.245,142.158 L 752.449,142.158 L 752.449,97.795 z"
         id="path1071" /></clipPath><clipPath
       id="clipPath1081"><path
         d="M 752.449,97.795 L 850.245,97.795 L 850.245,142.158 L 752.449,142.158 L 752.449,97.795 z"
         id="path1083" /></clipPath><clipPath
       id="clipPath1093"><path
         d="M 752.449,97.795 L 850.245,97.795 L 850.245,142.158 L 752.449,142.158 L 752.449,97.795 z"
         id="path1095" /></clipPath><clipPath
       id="clipPath1105"><path
         d="M 752.449,97.795 L 850.245,97.795 L 850.245,142.158 L 752.449,142.158 L 752.449,97.795 z"
         id="path1107" /></clipPath><clipPath
       id="clipPath1117"><path
         d="M 752.449,97.795 L 850.245,97.795 L 850.245,142.158 L 752.449,142.158 L 752.449,97.795 z"
         id="path1119" /></clipPath><clipPath
       id="clipPath1129"><path
         d="M 752.449,97.795 L 850.245,97.795 L 850.245,142.158 L 752.449,142.158 L 752.449,97.795 z"
         id="path1131" /></clipPath><clipPath
       id="clipPath1141"><path
         d="M 752.449,97.795 L 850.245,97.795 L 850.245,142.158 L 752.449,142.158 L 752.449,97.795 z"
         id="path1143" /></clipPath><clipPath
       id="clipPath1153"><path
         d="M 752.449,97.795 L 850.245,97.795 L 850.245,142.158 L 752.449,142.158 L 752.449,97.795 z"
         id="path1155" /></clipPath><clipPath
       id="clipPath1165"><path
         d="M 752.449,97.795 L 850.245,97.795 L 850.245,142.158 L 752.449,142.158 L 752.449,97.795 z"
         id="path1167" /></clipPath><clipPath
       id="clipPath1177"><path
         d="M 752.449,97.795 L 850.245,97.795 L 850.245,142.158 L 752.449,142.158 L 752.449,97.795 z"
         id="path1179" /></clipPath><clipPath
       id="clipPath1189"><path
         d="M 752.449,97.795 L 850.245,97.795 L 850.245,142.158 L 752.449,142.158 L 752.449,97.795 z"
         id="path1191" /></clipPath><clipPath
       id="clipPath1201"><path
         d="M 752.449,97.795 L 850.245,97.795 L 850.245,142.158 L 752.449,142.158 L 752.449,97.795 z"
         id="path1203" /></clipPath><clipPath
       id="clipPath1213"><path
         d="M 752.449,97.795 L 850.245,97.795 L 850.245,142.158 L 752.449,142.158 L 752.449,97.795 z"
         id="path1215" /></clipPath><clipPath
       id="clipPath1359"><path
         d="M 0,0 L 1323.78,0 L 1323.78,666.142 L 0,666.142 L 0,0 z"
         id="path1361" /></clipPath><clipPath
       id="clipPath1397"><path
         d="M 0,0 L 1323.78,0 L 1323.78,666.142 L 0,666.142 L 0,0 z"
         id="path1399" /></clipPath><clipPath
       id="clipPath1411"><path
         d="M 0,0 L 1323.78,0 L 1323.78,666.142 L 0,666.142 L 0,0 z"
         id="path1413" /></clipPath><clipPath
       id="clipPath1773"><path
         d="M 0,0 L 1323.78,0 L 1323.78,666.142 L 0,666.142 L 0,0 z"
         id="path1775" /></clipPath><clipPath
       id="clipPath1785"><path
         d="M 0,0 L 1323.78,0 L 1323.78,666.142 L 0,666.142 L 0,0 z"
         id="path1787" /></clipPath><clipPath
       id="clipPath1797"><path
         d="M 0,0 L 1323.78,0 L 1323.78,666.142 L 0,666.142 L 0,0 z"
         id="path1799" /></clipPath><clipPath
       id="clipPath1809"><path
         d="M 0,0 L 1323.78,0 L 1323.78,666.142 L 0,666.142 L 0,0 z"
         id="path1811" /></clipPath><clipPath
       id="clipPath1821"><path
         d="M 0,0 L 1323.78,0 L 1323.78,666.142 L 0,666.142 L 0,0 z"
         id="path1823" /></clipPath><clipPath
       id="clipPath1833"><path
         d="M 0,0 L 1323.78,0 L 1323.78,666.142 L 0,666.142 L 0,0 z"
         id="path1835" /></clipPath><clipPath
       id="clipPath1845"><path
         d="M 0,0 L 1323.78,0 L 1323.78,666.142 L 0,666.142 L 0,0 z"
         id="path1847" /></clipPath><clipPath
       id="clipPath1857"><path
         d="M 0,0 L 1323.78,0 L 1323.78,666.142 L 0,666.142 L 0,0 z"
         id="path1859" /></clipPath><clipPath
       id="clipPath1869"><path
         d="M 0,0 L 1323.78,0 L 1323.78,666.142 L 0,666.142 L 0,0 z"
         id="path1871" /></clipPath><clipPath
       id="clipPath1881"><path
         d="M 0,0 L 1323.78,0 L 1323.78,666.142 L 0,666.142 L 0,0 z"
         id="path1883" /></clipPath><clipPath
       id="clipPath1893"><path
         d="M 0,0 L 1323.78,0 L 1323.78,666.142 L 0,666.142 L 0,0 z"
         id="path1895" /></clipPath><clipPath
       id="clipPath1905"><path
         d="M 0,0 L 1323.78,0 L 1323.78,666.142 L 0,666.142 L 0,0 z"
         id="path1907" /></clipPath><clipPath
       id="clipPath1917"><path
         d="M 0,0 L 1323.78,0 L 1323.78,666.142 L 0,666.142 L 0,0 z"
         id="path1919" /></clipPath><clipPath
       id="clipPath1929"><path
         d="M 0,0 L 1323.78,0 L 1323.78,666.142 L 0,666.142 L 0,0 z"
         id="path1931" /></clipPath><clipPath
       id="clipPath1941"><path
         d="M 0,0 L 1323.78,0 L 1323.78,666.142 L 0,666.142 L 0,0 z"
         id="path1943" /></clipPath><clipPath
       id="clipPath1953"><path
         d="M 0,0 L 1323.78,0 L 1323.78,666.142 L 0,666.142 L 0,0 z"
         id="path1955" /></clipPath><clipPath
       id="clipPath1965"><path
         d="M 0,0 L 1323.78,0 L 1323.78,666.142 L 0,666.142 L 0,0 z"
         id="path1967" /></clipPath><clipPath
       id="clipPath1977"><path
         d="M 0,0 L 1323.78,0 L 1323.78,666.142 L 0,666.142 L 0,0 z"
         id="path1979" /></clipPath><clipPath
       id="clipPath1989"><path
         d="M 0,0 L 1323.78,0 L 1323.78,666.142 L 0,666.142 L 0,0 z"
         id="path1991" /></clipPath><clipPath
       id="clipPath2001"><path
         d="M 0,0 L 1323.78,0 L 1323.78,666.142 L 0,666.142 L 0,0 z"
         id="path2003" /></clipPath><clipPath
       id="clipPath2013"><path
         d="M 0,0 L 1323.78,0 L 1323.78,666.142 L 0,666.142 L 0,0 z"
         id="path2015" /></clipPath><clipPath
       id="clipPath2025"><path
         d="M 0,0 L 1323.78,0 L 1323.78,666.142 L 0,666.142 L 0,0 z"
         id="path2027" /></clipPath><clipPath
       id="clipPath2037"><path
         d="M 0,0 L 1323.78,0 L 1323.78,666.142 L 0,666.142 L 0,0 z"
         id="path2039" /></clipPath><clipPath
       id="clipPath2049"><path
         d="M 0,0 L 1323.78,0 L 1323.78,666.142 L 0,666.142 L 0,0 z"
         id="path2051" /></clipPath><clipPath
       id="clipPath2061"><path
         d="M 0,0 L 1323.78,0 L 1323.78,666.142 L 0,666.142 L 0,0 z"
         id="path2063" /></clipPath><clipPath
       id="clipPath2073"><path
         d="M 0,0 L 1323.78,0 L 1323.78,666.142 L 0,666.142 L 0,0 z"
         id="path2075" /></clipPath><clipPath
       id="clipPath2085"><path
         d="M 0,0 L 1323.78,0 L 1323.78,666.142 L 0,666.142 L 0,0 z"
         id="path2087" /></clipPath><clipPath
       id="clipPath2097"><path
         d="M 0,0 L 1323.78,0 L 1323.78,666.142 L 0,666.142 L 0,0 z"
         id="path2099" /></clipPath><clipPath
       id="clipPath2109"><path
         d="M 0,0 L 1323.78,0 L 1323.78,666.142 L 0,666.142 L 0,0 z"
         id="path2111" /></clipPath><clipPath
       id="clipPath2121"><path
         d="M 0,0 L 1323.78,0 L 1323.78,666.142 L 0,666.142 L 0,0 z"
         id="path2123" /></clipPath><clipPath
       id="clipPath2133"><path
         d="M 0,0 L 1323.78,0 L 1323.78,666.142 L 0,666.142 L 0,0 z"
         id="path2135" /></clipPath><clipPath
       id="clipPath2145"><path
         d="M 0,0 L 1323.78,0 L 1323.78,666.142 L 0,666.142 L 0,0 z"
         id="path2147" /></clipPath><clipPath
       id="clipPath2157"><path
         d="M 0,0 L 1323.78,0 L 1323.78,666.142 L 0,666.142 L 0,0 z"
         id="path2159" /></clipPath><clipPath
       id="clipPath2169"><path
         d="M 0,0 L 1323.78,0 L 1323.78,666.142 L 0,666.142 L 0,0 z"
         id="path2171" /></clipPath><clipPath
       id="clipPath2181"><path
         d="M 0,0 L 1323.78,0 L 1323.78,666.142 L 0,666.142 L 0,0 z"
         id="path2183" /></clipPath><clipPath
       id="clipPath2193"><path
         d="M 0,0 L 1323.78,0 L 1323.78,666.142 L 0,666.142 L 0,0 z"
         id="path2195" /></clipPath><clipPath
       id="clipPath2205"><path
         d="M 0,0 L 1323.78,0 L 1323.78,666.142 L 0,666.142 L 0,0 z"
         id="path2207" /></clipPath><clipPath
       id="clipPath2217"><path
         d="M 0,0 L 1323.78,0 L 1323.78,666.142 L 0,666.142 L 0,0 z"
         id="path2219" /></clipPath><clipPath
       id="clipPath2229"><path
         d="M 0,0 L 1323.78,0 L 1323.78,666.142 L 0,666.142 L 0,0 z"
         id="path2231" /></clipPath><clipPath
       id="clipPath2241"><path
         d="M 0,0 L 1323.78,0 L 1323.78,666.142 L 0,666.142 L 0,0 z"
         id="path2243" /></clipPath><clipPath
       id="clipPath2253"><path
         d="M 0,0 L 1323.78,0 L 1323.78,666.142 L 0,666.142 L 0,0 z"
         id="path2255" /></clipPath><clipPath
       id="clipPath2265"><path
         d="M 0,0 L 1323.78,0 L 1323.78,666.142 L 0,666.142 L 0,0 z"
         id="path2267" /></clipPath><clipPath
       id="clipPath2277"><path
         d="M 0,0 L 1323.78,0 L 1323.78,666.142 L 0,666.142 L 0,0 z"
         id="path2279" /></clipPath><clipPath
       id="clipPath2289"><path
         d="M 0,0 L 1323.78,0 L 1323.78,666.142 L 0,666.142 L 0,0 z"
         id="path2291" /></clipPath><clipPath
       id="clipPath2301"><path
         d="M 0,0 L 1323.78,0 L 1323.78,666.142 L 0,666.142 L 0,0 z"
         id="path2303" /></clipPath><clipPath
       id="clipPath2313"><path
         d="M 0,0 L 1323.78,0 L 1323.78,666.142 L 0,666.142 L 0,0 z"
         id="path2315" /></clipPath></defs><g
     transform="matrix(1.25,0,0,-1.25,-1258.5674,129.11175)"
     id="g11"><g
       id="g79"><g
         id="g297"><g
           clip-path="url(#clipPath301)"
           id="g299"><g
             transform="translate(708.2288,51.2175)"
             id="g305"><path
               d="M 0,0 C -0.578,0 -1.054,0.458 -1.054,1.02 C -1.054,1.597 -0.578,2.055 0,2.055 C 0.577,2.055 1.068,1.613 1.068,1.02 C 1.068,0.442 0.577,0 0,0 M 0.797,-9.936 L -0.799,-9.936 L -0.799,-1.886 L 0.797,-1.886 L 0.797,-9.936 z"
               id="path307"
               style="fill:#1e357a;fill-opacity:1;fill-rule:nonzero;stroke:none" /></g></g></g><g
         id="g309"><g
           clip-path="url(#clipPath313)"
           id="g311"><g
             transform="translate(715.5793,48.0258)"
             id="g317"><path
               d="M 0,0 L -2.139,0 L -2.139,-4.195 C -2.139,-5.166 -1.799,-5.554 -1.002,-5.554 C -0.713,-5.554 -0.341,-5.486 -0.067,-5.351 L -0.016,-6.658 C -0.392,-6.793 -0.882,-6.878 -1.374,-6.878 C -2.885,-6.878 -3.719,-6.029 -3.719,-4.365 L -3.719,0 L -5.262,0 L -5.262,1.306 L -3.719,1.306 L -3.719,3.617 L -2.139,3.617 L -2.139,1.306 L 0,1.306 L 0,0 z"
               id="path319"
               style="fill:#1e357a;fill-opacity:1;fill-rule:nonzero;stroke:none" /></g></g></g><g
         id="g321"><g
           clip-path="url(#clipPath325)"
           id="g323"><g
             transform="translate(718.7208,48.1097)"
             id="g329"><path
               d="M 0,0 C 0.374,0.797 1.393,1.443 2.546,1.443 C 4.619,1.443 5.552,-0.033 5.552,-1.833 L 5.552,-6.826 L 3.958,-6.826 L 3.958,-2.378 C 3.958,-1.07 3.617,0.083 2.139,0.083 C 0.885,0.083 -0.033,-0.968 -0.033,-2.564 L -0.033,-6.826 L -1.632,-6.826 L -1.632,6.013 L -0.033,6.013 L -0.033,0 L 0,0 z"
               id="path331"
               style="fill:#1e357a;fill-opacity:1;fill-rule:nonzero;stroke:none" /></g></g></g><g
         id="g333"><g
           clip-path="url(#clipPath337)"
           id="g335"><g
             transform="translate(733.9358,43.0148)"
             id="g341"><path
               d="M 0,0 L 0.033,0 L 2.261,6.317 L 3.957,6.317 L 0.052,-3.636 C -0.476,-4.977 -1.153,-5.808 -2.732,-5.808 C -3.072,-5.808 -3.43,-5.773 -3.786,-5.687 L -3.636,-4.278 C -3.38,-4.363 -3.091,-4.416 -2.835,-4.416 C -2,-4.416 -1.679,-3.94 -1.339,-3.074 L -0.831,-1.731 L -4.278,6.317 L -2.495,6.317 L 0,0 z"
               id="path343"
               style="fill:#1e357a;fill-opacity:1;fill-rule:nonzero;stroke:none" /></g></g></g><g
         id="g345"><g
           clip-path="url(#clipPath349)"
           id="g347"><g
             transform="translate(743.0728,41.0614)"
             id="g353"><path
               d="M 0,0 C -2.462,0 -4.331,1.783 -4.331,4.264 C -4.331,6.741 -2.462,8.491 0,8.491 C 2.461,8.491 4.348,6.741 4.348,4.264 C 4.348,1.783 2.461,0 0,0 M 0,7.167 C -1.715,7.167 -2.685,5.789 -2.685,4.264 C -2.685,2.734 -1.715,1.344 0,1.344 C 1.733,1.344 2.685,2.734 2.685,4.264 C 2.685,5.789 1.733,7.167 0,7.167"
               id="path355"
               style="fill:#1e357a;fill-opacity:1;fill-rule:nonzero;stroke:none" /></g></g></g><g
         id="g357"><g
           clip-path="url(#clipPath361)"
           id="g359"><g
             transform="translate(755.131,41.282)"
             id="g365"><path
               d="M 0,0 C -0.036,0.407 -0.069,0.987 -0.069,1.325 L -0.102,1.325 C -0.512,0.476 -1.562,-0.221 -2.735,-0.221 C -4.806,-0.221 -5.742,1.258 -5.742,3.057 L -5.742,8.05 L -4.144,8.05 L -4.144,3.6 C -4.144,2.276 -3.788,1.124 -2.31,1.124 C -1.036,1.124 -0.153,2.174 -0.153,3.77 L -0.153,8.05 L 1.445,8.05 L 1.445,1.73 C 1.445,1.309 1.46,0.528 1.511,0 L 0,0 z"
               id="path367"
               style="fill:#1e357a;fill-opacity:1;fill-rule:nonzero;stroke:none" /></g></g></g><g
         id="g369"><g
           clip-path="url(#clipPath373)"
           id="g371"><g
             transform="translate(768.2584,46.4964)"
             id="g377"><path
               d="M 0,0 C 0,1.187 -0.801,1.767 -1.986,1.767 C -2.889,1.767 -3.738,1.375 -4.28,0.83 L -5.128,1.852 C -4.349,2.599 -3.142,3.056 -1.837,3.056 C 0.475,3.056 1.528,1.681 1.528,-0.102 L 1.528,-3.617 C 1.528,-4.162 1.561,-4.823 1.646,-5.214 L 0.204,-5.214 C 0.117,-4.856 0.066,-4.434 0.066,-4.06 L 0.015,-4.06 C -0.563,-4.925 -1.479,-5.417 -2.686,-5.417 C -3.958,-5.417 -5.604,-4.788 -5.604,-2.939 C -5.604,-0.51 -2.717,-0.22 0,-0.22 L 0,0 z M -0.391,-1.376 C -1.971,-1.376 -3.976,-1.546 -3.976,-2.903 C -3.976,-3.857 -3.127,-4.162 -2.327,-4.162 C -0.834,-4.162 0,-3.16 0,-1.802 L 0,-1.376 L -0.391,-1.376 z"
               id="path379"
               style="fill:#1e357a;fill-opacity:1;fill-rule:nonzero;stroke:none" /></g></g></g><g
         id="g381"><g
           clip-path="url(#clipPath385)"
           id="g383"><path
             d="M 773.913,41.284 L 772.315,41.284 L 772.315,54.123 L 773.913,54.123 L 773.913,41.284 z"
             id="path389"
             style="fill:#1e357a;fill-opacity:1;fill-rule:nonzero;stroke:none" /><path
             d="M 778.158,41.284 L 776.56,41.284 L 776.56,54.123 L 778.158,54.123 L 778.158,41.284 z"
             id="path391"
             style="fill:#1e357a;fill-opacity:1;fill-rule:nonzero;stroke:none" /><g
             transform="translate(788.7883,48.0258)"
             id="g393"><path
               d="M 0,0 L -2.14,0 L -2.14,-4.195 C -2.14,-5.166 -1.8,-5.554 -1.003,-5.554 C -0.714,-5.554 -0.34,-5.486 -0.067,-5.351 L -0.018,-6.658 C -0.388,-6.793 -0.885,-6.878 -1.375,-6.878 C -2.886,-6.878 -3.719,-6.029 -3.719,-4.365 L -3.719,0 L -5.263,0 L -5.263,1.306 L -3.719,1.306 L -3.719,3.617 L -2.14,3.617 L -2.14,1.306 L 0,1.306 L 0,0 z"
               id="path395"
               style="fill:#1e357a;fill-opacity:1;fill-rule:nonzero;stroke:none" /></g><g
             transform="translate(791.9298,48.1097)"
             id="g397"><path
               d="M 0,0 C 0.373,0.797 1.39,1.443 2.546,1.443 C 4.619,1.443 5.553,-0.033 5.553,-1.833 L 5.553,-6.826 L 3.958,-6.826 L 3.958,-2.378 C 3.958,-1.07 3.617,0.083 2.139,0.083 C 0.881,0.083 -0.036,-0.968 -0.036,-2.564 L -0.036,-6.826 L -1.632,-6.826 L -1.632,6.013 L -0.036,6.013 L -0.036,0 L 0,0 z"
               id="path399"
               style="fill:#1e357a;fill-opacity:1;fill-rule:nonzero;stroke:none" /></g><g
             transform="translate(806.9933,44.83)"
             id="g401"><path
               d="M 0,0 L -6.388,0 C -6.334,-1.373 -5.183,-2.443 -3.77,-2.443 C -2.684,-2.443 -1.888,-1.901 -1.427,-1.221 L -0.307,-2.122 C -1.174,-3.243 -2.344,-3.769 -3.77,-3.769 C -6.217,-3.769 -8.016,-2.069 -8.016,0.46 C -8.016,2.973 -6.217,4.724 -3.854,4.724 C -1.478,4.724 0.015,3.11 0.015,0.545 C 0.015,0.375 0.015,0.189 0,0 M -1.598,1.19 C -1.632,2.464 -2.377,3.468 -3.854,3.468 C -5.234,3.468 -6.283,2.447 -6.388,1.19 L -1.598,1.19 z"
               id="path403"
               style="fill:#1e357a;fill-opacity:1;fill-rule:nonzero;stroke:none" /></g><g
             transform="translate(813.7344,49.3321)"
             id="g405"><path
               d="M 0,0 L 1.814,-6.147 L 1.85,-6.147 L 3.771,0 L 5.45,0 L 7.404,-6.147 L 7.44,-6.147 L 9.253,0 L 10.936,0 L 8.27,-8.05 L 6.605,-8.05 L 4.619,-2.006 L 4.583,-2.006 L 2.615,-8.05 L 0.951,-8.05 L -1.734,0 L 0,0 z"
               id="path407"
               style="fill:#1e357a;fill-opacity:1;fill-rule:nonzero;stroke:none" /></g><g
             transform="translate(831.1046,46.4964)"
             id="g409"><path
               d="M 0,0 C 0,1.187 -0.794,1.767 -1.986,1.767 C -2.886,1.767 -3.734,1.375 -4.276,0.83 L -5.124,1.852 C -4.345,2.599 -3.142,3.056 -1.833,3.056 C 0.479,3.056 1.529,1.681 1.529,-0.102 L 1.529,-3.617 C 1.529,-4.162 1.564,-4.823 1.649,-5.214 L 0.204,-5.214 C 0.121,-4.856 0.072,-4.434 0.072,-4.06 L 0.017,-4.06 C -0.559,-4.925 -1.475,-5.417 -2.681,-5.417 C -3.954,-5.417 -5.603,-4.788 -5.603,-2.939 C -5.603,-0.51 -2.714,-0.22 0,-0.22 L 0,0 z M -0.388,-1.376 C -1.968,-1.376 -3.972,-1.546 -3.972,-2.903 C -3.972,-3.857 -3.123,-4.162 -2.326,-4.162 C -0.831,-4.162 0,-3.16 0,-1.802 L 0,-1.376 L -0.388,-1.376 z"
               id="path411"
               style="fill:#1e357a;fill-opacity:1;fill-rule:nonzero;stroke:none" /></g><g
             transform="translate(838.1888,43.0148)"
             id="g413"><path
               d="M 0,0 L 0.032,0 L 2.26,6.317 L 3.956,6.317 L 0.051,-3.636 C -0.475,-4.977 -1.155,-5.808 -2.736,-5.808 C -3.076,-5.808 -3.432,-5.773 -3.789,-5.687 L -3.635,-4.278 C -3.381,-4.363 -3.091,-4.416 -2.837,-4.416 C -2.004,-4.416 -1.681,-3.94 -1.345,-3.074 L -0.834,-1.731 L -4.279,6.317 L -2.497,6.317 L 0,0 z"
               id="path415"
               style="fill:#1e357a;fill-opacity:1;fill-rule:nonzero;stroke:none" /></g><g
             transform="translate(694.152,43.7708)"
             id="g417"><path
               d="M 0,0 L 0.035,0 L 2.819,9.459 L 4.645,9.459 L 7.414,0 L 7.447,0 L 10.062,9.459 L 11.822,9.459 L 8.336,-2.417 L 6.609,-2.417 L 3.723,7.126 L 3.691,7.126 L 0.805,-2.417 L -0.922,-2.417 L -4.411,9.459 L -2.617,9.459 L 0,0 z"
               id="path419"
               style="fill:#1e357a;fill-opacity:1;fill-rule:nonzero;stroke:none" /></g></g></g><g
         transform="matrix(0.6605755,0,0,0.6605755,1056.6001,101.86204)"
         id="g421"><path
           d="M 0,0 L 0,-11.324 L -8.867,0 L -11.368,0 L -11.368,-16.28 L -8.64,-16.28 L -8.64,-4.411 L 0.591,-16.28 L 2.683,-16.28 L 2.683,0 L 0,0 z"
           id="path423"
           style="fill:#1e357a;fill-opacity:1;fill-rule:nonzero;stroke:none" /></g><g
         id="g425"><g
           transform="matrix(0.6605755,0,0,0.6605755,343.15792,34.120936)"
           id="g427"><g
             clip-path="url(#clipPath431)"
             id="g429"><g
               transform="translate(1178.0209,88.8605)"
               id="g435"><path
                 d="M 0,0 C -3.184,0 -5.502,2.592 -5.502,5.775 C -5.548,8.913 -3.138,11.505 0,11.505 C 3.183,11.505 5.502,8.913 5.502,5.775 C 5.502,2.592 3.183,0 0,0 M 0,14.097 C -4.639,14.097 -8.322,10.413 -8.322,5.775 C -8.322,1.092 -4.729,-2.592 0,-2.592 C 4.683,-2.592 8.321,1.092 8.321,5.775 C 8.321,10.413 4.638,14.097 0,14.097"
                 id="path437"
                 style="fill:#1e357a;fill-opacity:1;fill-rule:nonzero;stroke:none" /></g></g></g><g
           transform="matrix(0.6605755,0,0,0.6605755,343.15792,34.120936)"
           id="g439"><g
             clip-path="url(#clipPath443)"
             id="g441"><g
               transform="translate(1113.8667,88.8597)"
               id="g447"><path
                 d="M 0,0 C -3.183,0 -5.502,2.593 -5.502,5.776 C -5.548,8.914 -3.137,11.506 0,11.506 C 3.183,11.506 5.503,8.914 5.503,5.776 C 5.503,2.593 3.183,0 0,0 M 0,14.098 C -4.639,14.098 -8.322,10.414 -8.322,5.776 C -8.322,1.092 -4.729,-2.591 0,-2.591 C 4.684,-2.591 8.322,1.092 8.322,5.776 C 8.322,10.414 4.638,14.098 0,14.098"
                 id="path449"
                 style="fill:#1e357a;fill-opacity:1;fill-rule:nonzero;stroke:none" /></g></g></g><g
           transform="matrix(0.6605755,0,0,0.6605755,343.15792,34.120936)"
           id="g451"><g
             clip-path="url(#clipPath455)"
             id="g453"><g
               transform="translate(1095.1572,102.5486)"
               id="g459"><path
                 d="M 0,0 L -6.776,-7.639 L -6.776,0 L -9.503,0 L -9.503,-16.28 L -6.776,-16.28 L -6.776,-8.504 L 0.137,-16.28 L 3.82,-16.28 L -3.682,-7.959 L 3.457,0 L 0,0 z"
                 id="path461"
                 style="fill:#1e357a;fill-opacity:1;fill-rule:nonzero;stroke:none" /></g></g></g><g
           transform="matrix(0.6605755,0,0,0.6605755,343.15792,34.120936)"
           id="g463"><g
             clip-path="url(#clipPath467)"
             id="g465"><g
               transform="translate(1145.6705,101.7752)"
               id="g471"><path
                 d="M 0,0 C -1.137,-0.818 -1.728,-2 -1.728,-3.41 C -1.728,-6.138 0.409,-7.366 2.592,-8.049 C 4.547,-8.685 6.139,-9.186 6.139,-10.777 C 6.139,-12.323 4.639,-13.005 3.228,-13.005 C 1.41,-13.005 -0.319,-12.278 -1.365,-11.596 L -1.456,-11.551 L -1.456,-14.324 L -1.41,-14.324 C -0.455,-14.869 1.318,-15.507 3.273,-15.507 C 6.139,-15.507 8.821,-13.642 8.821,-10.687 C 8.821,-7.958 6.957,-6.639 4.365,-5.82 C 1.681,-5.002 0.863,-4.411 0.863,-3.364 C 0.863,-1.864 2.409,-1.409 3.819,-1.409 C 4.91,-1.409 6.366,-1.682 7.684,-2.319 L 7.731,-2.319 L 7.731,0.273 C 6.502,0.819 5.184,1.092 3.638,1.092 C 2.273,1.092 0.954,0.683 0,0"
                 id="path473"
                 style="fill:#1e357a;fill-opacity:1;fill-rule:nonzero;stroke:none" /></g></g></g><g
           transform="matrix(0.6605755,0,0,0.6605755,343.15792,34.120936)"
           id="g475"><g
             clip-path="url(#clipPath479)"
             id="g477"><g
               transform="translate(1253.6062,88.8605)"
               id="g483"><path
                 d="M 0,0 L -2.411,0 L -2.411,11.05 L 0,11.05 C 3.228,11.05 5.502,8.686 5.502,5.548 C 5.502,2.41 3.228,0 0,0 M 0,13.688 L -5.139,13.688 L -5.139,-2.592 L 0,-2.592 C 4.639,-2.592 8.366,0.864 8.366,5.548 C 8.366,10.231 4.593,13.688 0,13.688"
                 id="path485"
                 style="fill:#1e357a;fill-opacity:1;fill-rule:nonzero;stroke:none" /></g></g></g><g
           transform="matrix(0.6605755,0,0,0.6605755,343.15792,34.120936)"
           id="g487"><g
             clip-path="url(#clipPath491)"
             id="g489"><g
               transform="translate(1202.0627,102.5478)"
               id="g495"><path
                 d="M 0,0 L 0,-16.279 L 9.023,-16.279 L 10.278,-13.597 L 2.774,-13.597 L 2.774,0 L 0,0 z"
                 id="path497"
                 style="fill:#1e357a;fill-opacity:1;fill-rule:nonzero;stroke:none" /></g></g></g><g
           transform="matrix(0.6605755,0,0,0.6605755,343.15792,34.120936)"
           id="g499"><g
             clip-path="url(#clipPath503)"
             id="g501"><g
               transform="translate(1044.2117,88.7691)"
               id="g507"><path
                 d="M 0,0 L -2.819,0 L -2.819,4.593 L 0.5,4.593 C 2.046,4.593 3.092,3.684 3.092,2.319 C 3.092,0.865 2,0 0,0 M -2.819,11.278 L 0.091,11.278 C 1.41,11.278 2.592,10.596 2.592,9.232 C 2.592,7.913 1.592,7.05 0.227,7.05 L -2.819,7.05 L -2.819,11.278 z M 3.502,6.185 C 4.456,6.686 5.32,7.913 5.32,9.414 C 5.32,12.279 3.092,13.779 0.318,13.779 L -5.548,13.779 L -5.548,-2.5 L 0.136,-2.5 C 3.32,-2.5 5.911,-1.091 5.911,2.229 C 5.911,3.911 5.047,5.275 3.502,6.185"
                 id="path509"
                 style="fill:#1e357a;fill-opacity:1;fill-rule:nonzero;stroke:none" /></g></g></g><g
           transform="matrix(0.6605755,0,0,0.6605755,343.15792,34.120936)"
           id="g511"><g
             clip-path="url(#clipPath515)"
             id="g513"><g
               transform="translate(1242.7509,102.5484)"
               id="g519"><path
                 d="M 0,0 L 0,-11.324 L -8.867,0 L -11.368,0 L -11.368,-16.28 L -8.685,-16.28 L -8.685,-4.411 L 0.592,-16.28 L 2.683,-16.28 L 2.683,0 L 0,0 z"
                 id="path521"
                 style="fill:#1e357a;fill-opacity:1;fill-rule:nonzero;stroke:none" /></g></g></g><g
           transform="matrix(0.6605755,0,0,0.6605755,343.15792,34.120936)"
           id="g523"><g
             clip-path="url(#clipPath527)"
             id="g525"><g
               transform="translate(1056.5291,93.2268)"
               id="g531"><path
                 d="M 0,0 L 2.41,6.093 L 4.729,0 L 0,0 z M 3.728,9.367 L 1,9.367 L -5.593,-6.958 L -2.683,-6.958 L -0.956,-2.502 L 5.685,-2.502 L 7.458,-6.958 L 10.413,-6.958 L 3.728,9.367 z"
                 id="path533"
                 style="fill:#1e357a;fill-opacity:1;fill-rule:nonzero;stroke:none" /></g></g></g><g
           transform="matrix(0.6605755,0,0,0.6605755,343.15792,34.120936)"
           id="g535"><g
             clip-path="url(#clipPath539)"
             id="g537"><g
               transform="translate(1218.8624,93.2268)"
               id="g543"><path
                 d="M 0,0 L 2.41,6.093 L 4.729,0 L 0,0 z M 3.729,9.367 L 1,9.367 L -5.592,-6.958 L -2.682,-6.958 L -0.955,-2.502 L 5.685,-2.502 L 7.458,-6.958 L 10.413,-6.958 L 3.729,9.367 z"
                 id="path545"
                 style="fill:#1e357a;fill-opacity:1;fill-rule:nonzero;stroke:none" /></g></g></g><g
           transform="matrix(0.6605755,0,0,0.6605755,343.15792,34.120936)"
           id="g547"><g
             clip-path="url(#clipPath551)"
             id="g549"><g
               transform="translate(1164.6093,100.4336)"
               id="g555"><path
                 d="M 0,0 C 1.182,0 2.547,-0.318 3.639,-0.682 L 3.639,2.047 C 2.819,2.319 1.456,2.638 0,2.638 C -4.983,2.638 -8.72,-0.646 -8.813,-5.457 C -8.813,-5.462 -8.813,-5.467 -8.814,-5.472 C -8.815,-5.528 -8.821,-5.582 -8.821,-5.638 C -8.821,-5.681 -8.82,-5.721 -8.819,-5.764 C -8.82,-5.806 -8.821,-5.845 -8.821,-5.889 C -8.821,-5.946 -8.815,-5.999 -8.814,-6.055 C -8.813,-6.06 -8.813,-6.065 -8.813,-6.07 C -8.72,-10.881 -4.983,-14.165 0,-14.165 C 1.456,-14.165 2.819,-13.847 3.639,-13.573 L 3.639,-10.845 C 2.547,-11.209 1.182,-11.527 0,-11.527 C -3.593,-11.527 -6.047,-9.026 -6.003,-5.889 C -6.003,-5.847 -6.005,-5.805 -6.006,-5.764 C -6.005,-5.721 -6.003,-5.68 -6.003,-5.638 C -6.047,-2.501 -3.593,0 0,0"
                 id="path557"
                 style="fill:#1e357a;fill-opacity:1;fill-rule:nonzero;stroke:none" /></g></g></g><g
           transform="matrix(0.6605755,0,0,0.6605755,343.15792,34.120936)"
           id="g559"><g
             clip-path="url(#clipPath563)"
             id="g561"><g
               transform="translate(1134.9301,99.8654)"
               id="g567"><path
                 d="M 0,0 L 0,2.682 L -10.277,2.682 L -10.277,-13.597 L -7.503,-13.597 L -7.503,-6.54 L -0.653,-6.54 L -0.653,-3.857 L -7.503,-3.857 L -7.503,0 L 0,0 z"
                 id="path569"
                 style="fill:#1e357a;fill-opacity:1;fill-rule:nonzero;stroke:none" /></g></g></g><g
           transform="matrix(0.6605755,0,0,0.6605755,343.15792,34.120936)"
           id="g571"><g
             clip-path="url(#clipPath575)"
             id="g573"><g
               transform="translate(1199.6188,102.5461)"
               id="g579"><path
                 d="M 0,0 L -12.974,0 L -12.974,-2.682 L -7.923,-2.682 L -7.923,-16.279 L -5.051,-16.279 L -5.051,-2.682 L 0,-2.682 L 0,0 z"
                 id="path581"
                 style="fill:#1e357a;fill-opacity:1;fill-rule:nonzero;stroke:none" /></g></g></g><g
           transform="matrix(0.6605755,0,0,0.6605755,343.15792,34.120936)"
           id="g583"><g
             clip-path="url(#clipPath587)"
             id="g585"><g
               transform="translate(1022.0269,101.0614)"
               id="g591"><path
                 d="M 0,0 C 0,1.23 -0.992,2.228 -2.227,2.228 C -3.453,2.226 -4.452,1.23 -4.454,0 C -4.452,-1.228 -3.453,-2.226 -2.227,-2.227 C -0.992,-2.226 0,-1.228 0,0"
                 id="path593"
                 style="fill:#1e357a;fill-opacity:1;fill-rule:nonzero;stroke:none" /></g></g></g><g
           transform="matrix(0.6605755,0,0,0.6605755,343.15792,34.120936)"
           id="g595"><g
             clip-path="url(#clipPath599)"
             id="g597"><g
               transform="translate(1022.0269,87.8022)"
               id="g603"><path
                 d="M 0,0 C 0,1.229 -0.992,2.227 -2.227,2.227 C -3.453,2.225 -4.452,1.229 -4.454,0 C -4.452,-1.229 -3.453,-2.226 -2.227,-2.228 C -0.992,-2.226 0,-1.229 0,0"
                 id="path605"
                 style="fill:#1e357a;fill-opacity:1;fill-rule:nonzero;stroke:none" /></g></g></g><g
           transform="matrix(0.6605755,0,0,0.6605755,343.15792,34.120936)"
           id="g607"><g
             clip-path="url(#clipPath611)"
             id="g609"><g
               transform="translate(1011.3079,94.4106)"
               id="g615"><path
                 d="M 0,0 C 0,1.23 -0.992,2.228 -2.227,2.228 C -3.453,2.226 -4.451,1.23 -4.454,0 C -4.451,-1.229 -3.453,-2.226 -2.227,-2.228 C -0.992,-2.226 0,-1.229 0,0"
                 id="path617"
                 style="fill:#1e357a;fill-opacity:1;fill-rule:nonzero;stroke:none" /></g></g></g><g
           transform="matrix(0.6605755,0,0,0.6605755,343.15792,34.120936)"
           id="g619"><g
             clip-path="url(#clipPath623)"
             id="g621"><g
               transform="translate(1032.9076,94.411)"
               id="g627"><path
                 d="M 0,0 C 0,1.23 -0.992,2.228 -2.227,2.228 C -3.453,2.226 -4.452,1.23 -4.454,0 C -4.452,-1.229 -3.453,-2.225 -2.227,-2.228 C -0.992,-2.225 0,-1.229 0,0"
                 id="path629"
                 style="fill:#1e357a;fill-opacity:1;fill-rule:nonzero;stroke:none" /></g></g></g><g
           transform="matrix(0.6605755,0,0,0.6605755,343.15792,34.120936)"
           id="g631"><g
             clip-path="url(#clipPath635)"
             id="g633"><g
               transform="translate(1029.8667,98.3729)"
               id="g639"><path
                 d="M 0,0 L 0,4.173 L -10.017,-1.886 L -10.071,-1.918 L -20.133,4.177 L -20.133,0.005 L -13.519,-3.964 L -20.133,-7.926 L -20.133,-12.101 L -10.07,-6.013 L 0,-12.101 L 0,-7.926 L -6.619,-3.964 L 0,0 z"
                 id="path641"
                 style="fill:#1e357a;fill-opacity:1;fill-rule:nonzero;stroke:none" /></g></g></g><g
           id="g767" /></g></g></g></svg>