<?xml version="1.0" encoding="UTF-8" standalone="no"?>
<!-- Created with Inkscape (http://www.inkscape.org/) -->

<svg
   width="132.29166mm"
   height="19.5123mm"
   viewBox="0 0 132.29166 19.512301"
   version="1.1"
   id="svg1"
   inkscape:version="1.4 (86a8ad7, 2024-10-11)"
   sodipodi:docname="Lloyds Bank 1965 wordmark.svg"
   xmlns:inkscape="http://www.inkscape.org/namespaces/inkscape"
   xmlns:sodipodi="http://sodipodi.sourceforge.net/DTD/sodipodi-0.dtd"
   xmlns="http://www.w3.org/2000/svg"
   xmlns:svg="http://www.w3.org/2000/svg">
  <sodipodi:namedview
     id="namedview1"
     pagecolor="#ffffff"
     bordercolor="#000000"
     borderopacity="0.25"
     inkscape:showpageshadow="2"
     inkscape:pageopacity="0.0"
     inkscape:pagecheckerboard="0"
     inkscape:deskcolor="#d1d1d1"
     inkscape:document-units="mm"
     inkscape:zoom="1.9729351"
     inkscape:cx="186.52413"
     inkscape:cy="54.487349"
     inkscape:window-width="1920"
     inkscape:window-height="1001"
     inkscape:window-x="-9"
     inkscape:window-y="-9"
     inkscape:window-maximized="1"
     inkscape:current-layer="layer1" />
  <defs
     id="defs1" />
  <g
     inkscape:label="Layer 1"
     inkscape:groupmode="layer"
     id="layer1"
     transform="translate(-207.30126,-123.80551)">
    <path
       id="path3167"
       d="m 207.30126,124.11982 v 0.4207 h 1.12178 v 10.37688 h -1.12178 v 0.42066 h 7.18227 c 0.75456,0 1.68056,0.15337 1.68056,0.15337 l 0.49518,-3.86943 -0.46234,-0.0679 -0.21249,1.28831 c -0.36141,1.91805 -1.62292,2.07501 -3.18582,2.07501 h -1.53595 V 124.5405 h 1.15688 v -0.4207 z m 1.54248,0.4207 h 0.56092 v 10.37688 h -0.56092 z"
       style="fill:#000000;stroke:none;stroke-width:0.265112"
       inkscape:connector-curvature="0"
       sodipodi:nodetypes="ccccccsccccscccccccccc" />
    <path
       id="path3169"
       d="m 234.80119,123.9029 c -3.06122,0 -5.65946,2.53265 -5.65946,5.81725 0,3.37201 2.60917,5.83917 5.7712,5.83917 2.89939,0 5.57186,-2.39976 5.57186,-5.80191 0,-3.23447 -2.4749,-5.85451 -5.6836,-5.85451 z m -0.15118,0.43162 c 2.84422,0 2.64902,4.36261 2.64902,5.73624 0,2.52223 -0.24975,5.05694 -2.3861,5.05694 -1.69764,0 -2.62267,-1.45968 -2.62267,-5.72084 0,-2.92429 0.35324,-5.07234 2.35975,-5.07234 z m 1.88427,0.38345 c 1.47985,0.54829 1.823,2.57822 1.823,5.16437 0,1.82674 -0.21857,4.01103 -1.52934,4.7261 0.86794,-1.17692 0.93338,-3.03052 0.93338,-4.65821 0,-1.97114 -0.12506,-4.14301 -1.22704,-5.23226 z m -4.24402,0.2498 c -1.3506,1.42524 -2.10999,3.15391 -2.10999,4.7699 0,1.5804 0.63277,3.09838 2.15381,4.80282 -1.97456,-1.30811 -2.73002,-2.79033 -2.73002,-4.80282 0,-2.29604 0.92794,-3.70733 2.6862,-4.7699 z"
       style="fill:#000000;stroke:none;stroke-width:0.265112"
       inkscape:connector-curvature="0" />
    <path
       id="path3171"
       d="m 241.93383,124.11982 v 0.4207 h 0.77126 l 3.71603,6.45045 v 3.92643 h -1.26206 v 0.42066 h 5.32868 v -0.42066 h -1.26209 v -4.48732 l 2.43866,-4.64289 c 0.51165,-0.91499 0.75628,-1.24667 1.69807,-1.24667 v -0.4207 h -3.50567 v 0.4207 c 0.9215,0 1.36281,0.22936 1.36281,0.71428 0,0.30009 -0.18184,0.60253 -0.18184,0.60253 l -2.02889,3.90231 -3.00836,-5.21912 h 1.12186 v -0.4207 z m 13.17287,0 v 0.4207 h 1.12186 v 10.37688 h -1.12186 v 0.42066 h 5.31769 c 4.08027,0 5.94873,-2.49089 5.94873,-5.54118 0,-3.09976 -1.70394,-5.67706 -5.72741,-5.67706 z m -11.8823,0.4207 h 0.60252 l 3.57581,6.19192 v 4.18496 h -0.56089 v -4.06665 z m 13.42701,0 h 0.55871 v 10.37688 h -0.56089 l 0.003,-10.37688 z m 2.38169,0 h 0.84139 c 2.48226,0 3.38511,1.50399 3.38511,5.32207 0,3.35848 -0.77433,5.05481 -3.38511,5.05481 h -0.84139 z m 3.35013,0.50392 c 1.21597,0.68818 1.91496,2.29294 1.91496,4.74804 0,2.28602 -0.4998,3.87672 -1.91496,4.71954 1.21482,-1.48508 1.33433,-3.02609 1.33433,-4.70204 0,-1.66484 -0.0764,-3.38275 -1.33433,-4.76554 z"
       style="fill:#000000;stroke:none;stroke-width:0.265112"
       inkscape:connector-curvature="0"
       sodipodi:nodetypes="ccccccccccccccccsccccccccccccssscccccccccccccccssscccscsc" />
    <path
       style="fill:#000000;stroke:none;stroke-width:0.265112"
       d="m 308.79482,123.80551 -2.59176,0.53208 0.27463,0.89253 -3.08093,8.68496 c -0.2932,0.70687 -0.59671,0.93805 -1.33878,1.0041 v 0.4205 h 3.0895 v -0.4205 h -0.35186 c -0.66913,0 -0.96118,-0.28916 -0.96118,-0.64366 0,-0.18411 0.11156,-0.47203 0.11156,-0.47203 l 0.70373,-2.04248 h 3.99919 l 0.97835,3.15817 h -1.047 v 0.4205 h 4.90889 v -0.4205 h -0.79812 z m -1.50184,0.74665 3.3727,10.36702 h -0.54066 l -3.36412,-10.25547 z m -0.58358,1.37311 1.78505,5.41522 h -3.67309 z"
       id="path3205"
       inkscape:connector-curvature="0" />
    <path
       style="fill:#000000;stroke:none;stroke-width:0.265112"
       d="m 271.9595,123.9085 c -2.58229,0 -3.90482,1.79641 -3.90482,3.63875 0,4.50088 6.63386,2.8814 6.63386,5.63834 0,1.31089 -1.28702,1.89664 -2.43729,1.89664 -2.81529,0 -3.53203,-1.66977 -3.63875,-2.32571 l -0.12012,-0.83246 h -0.44626 l 0.28319,3.47571 c 0.38261,-0.24365 0.7835,-0.3948 1.14139,-0.3948 0.89472,0 1.57051,0.57501 2.98652,0.57501 2.29657,0 4.17944,-1.51847 4.17944,-3.69025 0,-4.61103 -6.83125,-3.10508 -6.83125,-5.92156 0,-0.83131 0.64385,-1.63058 2.22274,-1.63058 1.56761,0 2.84877,0.75409 3.08092,1.9481 l 0.21456,1.15001 h 0.4634 l -0.28319,-3.39846 c 0,0 -0.57377,0.25743 -1.01268,0.25743 -0.76664,0 -1.09363,-0.38617 -2.53166,-0.38617 z m -3.27835,2.44584 c 0.0535,0.35182 0.10648,0.79608 0.1545,1.09849 0.52558,3.63486 6.65962,2.09408 6.65962,5.15778 0,0.55677 -0.42913,1.10709 -0.42913,1.10709 0,0 0.0429,-0.31645 0.0429,-0.51492 0,-0.99743 -0.35528,-1.58034 -1.81938,-2.04253 l -1.91377,-0.59215 c -0.96233,-0.35393 -2.90073,-1.03744 -2.90073,-3.05518 0,-0.53482 0.20596,-1.15858 0.20596,-1.15858 z"
       id="path3203"
       inkscape:connector-curvature="0" />
    <path
       style="fill:#000000;stroke:none;stroke-width:0.265112"
       d="m 289.90046,124.12303 v 0.42053 h 1.12426 v 10.37562 h -1.12426 v 0.4205 h 6.23911 c 2.94044,0 4.2309,-1.04547 4.2309,-2.82346 0,-1.98675 -1.73521,-2.81675 -3.8533,-3.17535 2.43358,-0.26781 3.4242,-1.19739 3.4242,-2.54883 0,-2.1071 -2.26828,-2.66901 -4.59995,-2.66901 z m 1.54476,0.42053 h 0.55781 v 10.37562 h -0.55781 z m 2.38578,0 h 0.69516 c 1.88855,0 2.40294,0.87143 2.40294,2.24848 0,1.34359 -0.46194,2.30853 -2.21417,2.30853 H 293.831 Z m 2.64325,0.13732 c 1.07451,0.23461 1.42461,1.09646 1.42461,2.0854 0,0.94094 -0.24678,1.74608 -1.2959,2.13692 0.668,-0.7699 0.74665,-1.36597 0.74665,-2.13692 0,-0.8242 -0.19833,-1.51564 -0.87536,-2.0854 z m -2.64325,4.84022 h 1.01267 c 1.89051,0 2.48878,1.28505 2.48878,2.81489 0,1.42934 -0.64968,2.58319 -2.37723,2.58319 H 293.831 Z m 2.98653,0.30036 c 1.21032,0.4093 1.51043,1.44226 1.51043,2.47161 0,1.33576 -0.41638,2.24106 -1.75073,2.65184 0.88462,-0.75549 1.19288,-1.62418 1.19288,-2.65184 0,-1.00188 -0.22378,-1.83385 -0.95258,-2.47161 z"
       id="path3201"
       inkscape:connector-curvature="0" />
    <path
       style="fill:#000000;stroke:none;stroke-width:0.265112"
       d="m 315.29963,124.12303 v 0.42053 c 0.63656,-0.0162 0.69,0.11719 0.81529,0.25746 l 0.58358,0.78954 v 7.85251 c 0,0.9309 -0.25611,1.47611 -1.46752,1.47611 v 0.4205 h 3.43278 v -0.4205 c -0.99815,0 -1.46751,-0.25765 -1.46751,-1.47611 v -7.10586 l 6.05887,9.00247 h 1.51042 v -9.53458 c 0,-0.99203 0.55076,-1.26154 1.46752,-1.26154 v -0.42053 h -3.36413 v 0.42053 c 1.13468,0 1.40744,0.66409 1.40744,1.33019 v 5.81861 l -5.12343,-7.56933 z m 1.21006,0.42053 h 0.62648 l 6.99431,10.37562 h -0.62649 z"
       id="path3199"
       inkscape:connector-curvature="0" />
    <path
       style="fill:#000000;stroke:none;stroke-width:0.265112"
       d="m 328.16131,124.12303 v 0.42053 h 1.12424 v 10.37562 h -1.12424 v 0.4205 h 5.0462 v -0.4205 h -1.11566 l 0.009,-3.93058 1.047,-1.21003 2.48877,5.14061 h -1.23581 v 0.4205 h 5.1921 v -0.4205 h -0.80671 l -3.65591,-7.51781 1.27871,-1.51043 c 0.74944,-0.8098 0.98309,-1.22001 2.48018,-1.34738 v -0.42053 h -4.13651 v 0.42053 h 0.42052 c 0.67674,0 0.88395,0.27803 0.88395,0.60074 0,0.24024 -0.10821,0.46406 -0.35186,0.74664 l -3.61302,4.34245 v -5.68983 h 1.1929 v -0.42053 h -5.12344 z m 1.54476,0.42053 h 0.55782 v 10.37562 h -0.55782 z m 4.11934,4.4283 2.9007,5.94732 h -0.59215 l -2.68615,-5.50966 z"
       id="path3197"
       inkscape:connector-curvature="0" />
    <path
       sodipodi:nodetypes="ccccccsccccscccccccccc"
       inkscape:connector-curvature="0"
       style="fill:#000000;stroke:none;stroke-width:0.265112"
       d="m 217.99407,124.11982 v 0.4207 h 1.12178 v 10.37688 h -1.12178 v 0.42066 h 7.18227 c 0.75455,0 1.68056,0.15337 1.68056,0.15337 l 0.49517,-3.86943 -0.46233,-0.0679 -0.2125,1.28831 c -0.36141,1.91805 -1.62291,2.07501 -3.18582,2.07501 h -1.53594 V 124.5405 h 1.15687 v -0.4207 z m 1.54247,0.4207 h 0.56092 v 10.37688 h -0.56092 z"
       id="path3214" />
    <g
       id="g3374"
       transform="matrix(0.02859897,0,0,0.02859897,281.81816,91.508944)">
      <path
         inkscape:connector-curvature="0"
         style="fill:#000000;stroke:none"
         d="m 165.91954,1770.4634 c -13.81738,0 -20.50119,10.4187 -20.50119,20.5996 0,13.056 10.46837,20.5011 20.82921,20.5011 10.88274,0 20.27158,-9.1597 20.27158,-20.7636 0,-10.272 -7.65811,-20.3371 -20.5996,-20.3371 z m 1.27928,4.2642 c -5.19176,5.4658 -8.29888,9.9214 -8.29888,16.2042 0,5.1071 1.90242,8.6814 8.23327,16.04 -10.06119,-1.28 -15.67931,-6.929 -15.67931,-16.04 0,-7.4772 3.18761,-13.7497 15.74492,-16.2042 z"
         id="path3376" />
      <path
         style="fill:#000000;stroke:none"
         d="m -554.32671,1698.375 -46.5,13.625 v 5.375 c 8.60353,0 11.5,3.9336 11.5,11 v 74 h -11 v 6 h 57 v -6 h -11 z m -22,12.5625 v 91.4375 h -8 v -75 c 0,-6.9148 -1.73151,-9.7673 -5.125,-12.6875 z"
         id="path3378"
         inkscape:connector-curvature="0" />
      <path
         style="fill:#000000;stroke:none"
         d="m -572.88921,1647.25 c -13.16366,0 -19.53125,9.9258 -19.53125,19.625 0,12.4383 9.9731,19.5312 19.84375,19.5312 10.36786,0 19.3125,-8.7263 19.3125,-19.7812 0,-9.7861 -7.2958,-19.375 -19.625,-19.375 z m 1.21875,4.0625 c -4.94613,5.2072 -7.90625,9.452 -7.90625,15.4375 0,4.8655 1.81242,8.2707 7.84375,15.2812 -9.58518,-1.2195 -14.9375,-6.6012 -14.9375,-15.2812 0,-7.1234 3.0368,-13.0991 15,-15.4375 z"
         id="path3380"
         inkscape:connector-curvature="0" />
      <path
         style="fill:#000000;stroke:none"
         d="m -473.57286,1696.7812 -38.0625,14.2813 v 5.1875 c 5.87863,0 11.46875,2.3496 11.46875,11.125 v 75 h -11 v 6 h 54 v -5.9688 h -8.5 v -79 c 3.34018,-4.2233 8.92098,-8.0312 14.8125,-8.0312 8.06137,0 14.6875,5.4962 14.6875,20 v 67 h -8 v 6 h 51 v -6 h -8 v -68 c 0,-5.6542 -1.40625,-11.6875 -1.40625,-11.6875 3.7594,-3.4816 9.01017,-7.2187 15.59375,-7.2187 14.62394,0 14.8125,12.6878 14.8125,23.9062 v 63 h -8 v 6 h 55 v -5.9688 h -11.4375 v -63.5 c 0,-29.5863 -15.41581,-40.7187 -31.53125,-40.7187 -14.42982,0 -27.73481,9.2964 -36.65625,18.4063 -4.05391,-9.7482 -14.05421,-18.3126 -28.1875,-18.3126 -12.73539,0 -25.03393,9.3394 -33.125,16.5626 -0.68703,-3.7216 -2.81881,-12.9312 -7.46875,-18.0626 z m -18.6875,13.0313 c 2.90055,3.9128 5.09375,10.26 5.09375,15.5625 v 77 h -7.3125 v -74 c 0,-6.7018 -0.93134,-11.6461 -6.40625,-15.0312 z m 51.96875,0.875 c 12.31424,0.1127 17.125,9.9848 17.125,22.6875 v 69 h -7 v -67 c 0,-12.4151 -5.61031,-22.264 -14.1875,-24.4062 1.43728,-0.2048 2.78861,-0.293 4.0625,-0.2813 z m 65.28125,0.1563 c 11.73857,-0.038 16.34375,11.5266 16.34375,23.5312 v 68 h -7.5 v -71 c 0,-8.2576 -4.58901,-17.7756 -12.71875,-20.125 1.3697,-0.2644 2.66067,-0.4023 3.875,-0.4062 z"
         id="path3382"
         inkscape:connector-curvature="0" />
      <path
         id="path3384"
         d="m -257.21246,1698.375 -46.5,13.625 v 5.375 c 8.60353,0 11.5,3.9336 11.5,11 v 74 h -11 v 6 h 57 v -6 h -11 z m -22,12.5625 v 91.4375 h -8 v -75 c 0,-6.9148 -1.73151,-9.7673 -5.125,-12.6875 z"
         style="fill:#000000;stroke:none"
         inkscape:connector-curvature="0" />
      <path
         id="path3386"
         d="m -275.77496,1647.25 c -13.16366,0 -19.53125,9.9258 -19.53125,19.625 0,12.4383 9.9731,19.5312 19.84375,19.5312 10.36786,0 19.3125,-8.7263 19.3125,-19.7812 0,-9.7861 -7.2958,-19.375 -19.625,-19.375 z m 1.21875,4.0625 c -4.94613,5.2072 -7.90625,9.452 -7.90625,15.4375 0,4.8655 1.81242,8.2707 7.84375,15.2812 -9.58518,-1.2195 -14.9375,-6.6012 -14.9375,-15.2812 0,-7.1234 3.0368,-13.0991 15,-15.4375 z"
         style="fill:#000000;stroke:none"
         inkscape:connector-curvature="0" />
      <path
         id="path3388"
         d="m -750.27294,1648.1896 v 6 h 16 v 148 h -16 v 6 h 91.72244 c 10.76202,0 23.96875,2.1875 23.96875,2.1875 l 5.78937,-36.7271 -6.59375,-0.9688 -3.03125,18.375 c -2.60799,13.7757 -21.87319,11.1334 -44.16437,11.1334 h -11.19119 v -148 h 16.5 v -6 z m 22,6 h 8 v 148 h -8 z"
         style="fill:#000000;stroke:none"
         inkscape:connector-curvature="0"
         sodipodi:nodetypes="ccccccsccccscccccccccc" />
      <path
         style="fill:#000000;stroke:none"
         d="m -177.21648,1661.375 -35,12 v 29 h -15 v 7 h 15 v 72 c 0,16.2464 5.63337,30.0625 29.53125,30.0625 14.03113,0 25.38505,-6.1142 32.5625,-12.2813 l -3.6875,-5.0312 c -3.12323,2.481 -5.80218,5.2188 -11.125,5.2188 -9.79173,0 -12.28125,-8.1506 -12.28125,-15.9688 v -74 h 25 v -7 h -25 z m -22,14 v 106 c 0,7.8202 1.09011,17.8822 6.40625,23.3125 -5.82111,-2.2303 -13.40625,-5.8264 -13.40625,-22.3125 v -105 z"
         id="path3390"
         inkscape:connector-curvature="0" />
      <path
         style="fill:#000000;stroke:none"
         d="m -77.781169,1699.0625 c -34.823391,0 -56.625001,28.2323 -56.625001,56.875 0,33.4565 22.7799,55.4375 54.875001,55.4375 22.377864,0 41.204637,-11.2548 53.875,-29.75 l -4.4375,-4.375 c -10.040961,11.6214 -17.080222,16.625 -28.5625,16.625 -18.092727,0 -30.34802,-10.1618 -39.125,-31.375 l 68.4375,-23.125 c -5.359481,-18.6762 -16.49279,-40.3125 -48.4375,-40.3125 z m -4.0625,5.25 c 9.103832,0 18.84375,9.2242 18.84375,28.0313 0,8.478 -2.331737,11.4358 -8.5,14.5 l -28.1875,9.9687 c 0,0 -2.218751,-10.1123 -2.218751,-17.3125 0,-24.4021 9.352971,-35.1875 20.062501,-35.1875 z m 16.25,2.375 c 8.724839,3.4101 16.84375,12.2591 16.84375,24.1563 0,8.7007 -5.041675,10.7436 -9.40625,11.8124 0,0 1.3125,-4.0368 1.3125,-10.2187 0,-9.0751 -2.270725,-17.1763 -8.75,-25.75 z m -44.625001,8.6875 c -5.6188,11.0971 -9.90625,23.4059 -9.90625,36.75 0,19.1233 6.91001,34.9343 27.687501,53.4062 -25.004581,-9.192 -36.062501,-26.3736 -36.062501,-49.4062 0,-16.7999 5.36495,-29.0383 18.28125,-40.75 z"
         id="path3392"
         inkscape:connector-curvature="0" />
      <path
         style="fill:#000000;stroke:none"
         d="m 106.58891,1644.375 -46.000001,14 v 5 c 5.167655,0 11,2.3581 11,10 v 30.4375 c 0,0 -5.765309,-4.5313 -16.125,-4.5313 -28.863094,0 -57.1875001,26.9645 -57.1875001,64.5938 0,25.6979 15.1536251,46.5938 39.9687501,46.5938 17.466982,0 28.109287,-9.9317 34.625,-16.7188 0,0 0.624959,8.0257 6.90625,16.7188 10.922348,-2.3332 24.966271,-5.0662 38.625001,-6.8126 v -5.375 c -9.28894,0 -11.8125,-5.8704 -11.8125,-12.9062 z m -21.968751,12.8438 v 127.1874 c 0,6.8733 1.791488,10.4926 5.125,17.9376 l -7.3125,1.5937 c -2.713524,-5.0971 -4.875,-11.9694 -4.875,-19.375 V 1674.625 c 0,-5.6597 -2.178794,-11.3593 -6.1875,-13.8125 z m -24.5625,48.5937 c 6.405643,0 11.53125,5.5625 11.53125,5.5625 v 76 c 0,0 -5.630496,6.4688 -12.59375,6.4688 -17.036349,0 -25,-19.4892 -25,-45.4376 0,-20.386 8.511087,-42.5937 26.0625,-42.5937 z m -29,6.0937 c -12.245737,15.5881 -18.5625,33.6776 -18.5625,50.9063 0,16.3728 4.084813,28.6706 21.84375,42.3437 -15.76125,-1.9376 -30.6562501,-16.9466 -30.6562501,-42.3437 0,-21.6609 10.0612411,-39.1496 27.3750001,-50.9063 z"
         id="path3394"
         inkscape:connector-curvature="0" />
    </g>
  </g>
</svg>
