<svg version="1.1" xmlns="http://www.w3.org/2000/svg" xmlns:xlink="http://www.w3.org/1999/xlink" width="460.53252" height="90.88327" viewBox="0,0,460.53252,90.88327"><g transform="translate(-9.73374,-134.55836)"><g data-paper-data="{&quot;isPaintingLayer&quot;:true}" fill="#1a3b73" fill-rule="evenodd" stroke="none" stroke-width="1" stroke-linecap="butt" stroke-linejoin="miter" stroke-miterlimit="10" stroke-dasharray="" stroke-dashoffset="0" style="mix-blend-mode: normal"><path d="M38.67816,186.17604c-0.9265,-2.766 -3.81676,-4.63521 -6.9123,-4.63521h-14.59984c-4.05177,0 -7.33639,3.28461 -7.33639,7.33639c0,4.05177 3.28461,7.33639 7.33639,7.33639l11.47999,0.0108l-16.66354,16.66624c-2.78565,2.87814 -2.74795,7.45859 0.08469,10.29049c2.83264,2.8319 7.41309,2.86841 10.29051,0.08201l16.89314,-16.89314l-0.12966,11.70689c-0.09184,4.04906 3.19279,7.33369 7.24725,7.33369c4.05176,0 7.33639,-3.28463 7.33639,-7.33369v-14.59984c-0.00224,-3.08394 -1.93016,-5.83826 -4.827,-6.8961c-0.0027,0 -7.49035,-2.69307 -10.19963,-10.40492zM61.46526,196.58906c-2.766,0.9319 -4.63251,3.81946 -4.63251,6.91771v14.59714c0.07669,3.99617 3.33813,7.19562 7.33504,7.19562c3.99691,0 7.25835,-3.19945 7.33504,-7.19562l0.0081,-11.47729l16.66354,16.66624c2.86503,2.86503 7.51017,2.86503 10.37521,0c2.86503,-2.86503 2.86503,-7.51017 0,-10.37521l-16.89314,-16.89584l11.70689,0.12696c4.05176,0.09454 7.33639,-3.19009 7.33639,-7.24185c0.00072,-1.9462 -0.77191,-3.81293 -2.14782,-5.18936c-1.37592,-1.37642 -3.24237,-2.14973 -5.18856,-2.14973h-14.59984c-3.0842,-0.00059 -5.8392,1.92855 -6.89339,4.827c0,0 -2.69577,7.48495 -10.40492,10.19423zM71.94311,173.79386c0.9319,2.7687 3.81676,4.63521 6.915,4.63521h14.59984c4.05177,0 7.33639,-3.28461 7.33639,-7.33639c0,-4.05177 -3.28461,-7.33639 -7.33639,-7.33639l-11.47729,-0.0081l16.66354,-16.66354c2.86578,-2.86503 2.86639,-7.51078 0.00135,-10.37656c-2.86503,-2.86578 -7.51078,-2.86639 -10.37656,-0.00135l-16.89314,16.89584l0.12696,-11.70689c0.09184,-4.05176 -3.19279,-7.33639 -7.24185,-7.33639c-1.9462,-0.00072 -3.81293,0.77191 -5.18936,2.14782c-1.37642,1.37592 -2.14973,3.24237 -2.14973,5.18856v14.59714c0,3.17118 2.00967,5.87235 4.8243,6.8961c0,0 7.49035,2.69577 10.19693,10.40492zM48.96693,163.50239c2.766,-0.9292 4.63521,-3.81676 4.63521,-6.915v-14.59984c0,-4.05177 -3.28461,-7.33639 -7.33639,-7.33639c-4.05177,0 -7.33639,3.28461 -7.33639,7.33639l-0.0081,11.47999l-16.66354,-16.66354c-2.86503,-2.86503 -7.51017,-2.86503 -10.37521,0c-2.86503,2.86503 -2.86503,7.51017 0,10.37521l16.89314,16.89314l-11.70689,-0.12696c-4.05176,-0.09184 -7.33369,3.19279 -7.33369,7.24185c-0.00072,1.94573 0.77153,3.81205 2.14687,5.1884c1.37533,1.37635 3.24109,2.14997 5.18682,2.15069h14.59984c3.08276,-0.00138 5.83632,-1.92844 6.89339,-4.8243c-0.0027,-0.0054 2.69307,-7.49576 10.40492,-10.19963zM124.09197,142.44674h-11.12613v-6.86098h30.41791v6.86098h-11.12613v30.26125h-8.16565zM146.02279,135.58576h7.38501v13.98668h0.15667c1.87191,-3.01451 5.09441,-4.47044 7.85231,-4.47044c7.84961,0 9.82687,4.41912 9.82687,11.07481v16.53388h-7.38501v-15.1833c0,-4.41642 -1.30197,-6.60167 -4.73246,-6.60167c-4.00314,0 -5.71838,2.23657 -5.71838,7.69564v14.09202h-7.38501zM181.47029,161.06052c0.20529,4.68113 2.49588,6.81236 6.60167,6.81236c2.96589,0 5.35373,-1.82329 5.82643,-3.48722h6.49632c-2.0772,6.34236 -6.49632,9.04893 -12.58207,9.04893c-8.47628,0 -13.72466,-5.82373 -13.72466,-14.14064c0,-8.063 5.56172,-14.19467 13.72466,-14.19467c9.15428,0 13.5707,7.69564 13.05477,15.96123zM193.48241,156.37939c-0.67799,-3.74113 -2.28519,-5.71838 -5.87505,-5.71838c-4.68113,0 -6.03172,3.64118 -6.13437,5.71838zM212.86333,135.58576h20.0211c6.65299,0 10.86952,4.62711 10.86952,10.24285c0,4.3651 -1.77197,7.64162 -5.87775,9.30554v0.10535c4.00044,1.03725 5.15114,4.94045 5.40775,8.68157c0.15397,2.33922 0.10535,6.70701 1.56128,8.78692h-8.16565c-0.98863,-2.33922 -0.88598,-5.92367 -1.29926,-8.88956c-0.57265,-3.89779 -2.0826,-5.61574 -6.18839,-5.61574h-8.16295v14.5053h-8.16565zM221.02898,152.37625h8.94359c3.64118,0 5.61574,-1.55858 5.61574,-5.3024c0,-3.58716 -1.97456,-5.14574 -5.61574,-5.14574h-8.94359zM259.91777,145.09929c8.47358,0 13.93265,5.61574 13.93265,14.19467c0,8.5249 -5.45907,14.14064 -13.93265,14.14064c-8.42496,0 -13.88673,-5.61574 -13.88673,-14.14064c0,-8.57893 5.46177,-14.19467 13.88673,-14.19467zM259.91777,167.87558c5.04309,0 6.54764,-4.31648 6.54764,-8.57893c0,-4.31648 -1.50455,-8.63295 -6.54764,-8.63295c-4.99717,0 -6.49902,4.31648 -6.49902,8.63295c0,4.26245 1.50185,8.57893 6.49902,8.57893zM290.42753,176.08985c-1.6153,4.31107 -4.16251,6.08034 -9.25962,6.08034c-1.50455,0 -3.01181,-0.10264 -4.52176,-0.25931v-6.08304c1.40461,0.10264 2.86054,0.30793 4.31648,0.25931c2.54721,-0.25931 3.37647,-2.91457 2.54721,-5.04579l-9.46491,-25.21816h7.90363l6.08304,18.4031h0.10535l5.87775,-18.4031h7.64432zM319.53267,159.55597c-1.25064,1.09127 -3.85187,1.1399 -6.13437,1.55858c-2.2906,0.4673 -4.3678,1.25064 -4.3678,3.94912c0,2.7579 2.13123,3.43049 4.52176,3.43049c5.77241,0 5.9831,-4.57309 5.9831,-6.18569v-2.7525zM302.47746,154.0915c0.41598,-6.9123 6.59897,-8.99221 12.63609,-8.99221c5.35373,0 11.80143,1.19392 11.80143,7.64162v13.98938c0,2.44456 0.25931,4.88642 0.94001,5.9777h-7.49035c-0.27575,-0.84256 -0.45074,-1.71481 -0.52133,-2.59853c-2.33652,2.44456 -5.76701,3.32785 -9.04353,3.32785c-5.09711,0 -9.15428,-2.54721 -9.15428,-8.0603c0,-6.08034 4.57849,-7.53898 9.15428,-8.16025c4.52176,-0.67799 8.7356,-0.52133 8.7356,-3.53584c0,-3.17118 -2.18525,-3.64118 -4.78378,-3.64118c-2.80652,0 -4.62711,1.1453 -4.89183,4.05446h-7.38231zM331.12341,135.58576h7.38231v37.12223h-7.38231zM360.1151,166.36563h8.7356c3.2225,0 6.03442,-1.04265 6.03442,-4.88912c0,-3.79515 -2.39594,-5.3051 -5.87775,-5.3051h-8.89496v10.19423zM351.95216,135.58576h17.47389c7.06897,0 11.85005,2.28789 11.85005,9.2002c0,3.64388 -1.82059,6.18839 -5.03769,7.74967c4.52176,1.29926 6.80966,4.78378 6.80966,9.41089c0,7.53898 -6.39908,10.76148 -13.10609,10.76148h-17.98982zM360.1151,150.61239h8.26829c2.86054,0 4.99717,-1.30197 4.99717,-4.41912c0,-3.53584 -2.70658,-4.26245 -5.61844,-4.26245h-7.64432v8.68157zM402.79365,159.55597c-1.25064,1.09127 -3.84647,1.1399 -6.13437,1.55858c-2.2906,0.4673 -4.3678,1.25064 -4.3678,3.94912c0,2.7579 2.13123,3.43049 4.52176,3.43049c5.77781,0 5.9831,-4.57309 5.9831,-6.18569v-2.7525zM385.73844,154.0915c0.41598,-6.9123 6.60437,-8.99221 12.63609,-8.99221c5.35373,0 11.80683,1.19392 11.80683,7.64162v13.98938c0,2.44456 0.25931,4.88642 0.93461,5.9777h-7.49035c-0.27656,-0.84209 -0.4498,-1.71466 -0.51592,-2.59853c-2.33652,2.44456 -5.77241,3.32785 -9.04893,3.32785c-5.09711,0 -9.15428,-2.54721 -9.15428,-8.0603c0,-6.08034 4.57849,-7.53898 9.15428,-8.16025c4.52717,-0.67799 8.7356,-0.52133 8.7356,-3.53584c0,-3.17118 -2.18525,-3.64118 -4.78378,-3.64118c-2.80652,0 -4.62711,1.1453 -4.88642,4.05446h-7.38771zM414.4384,145.82861h7.01765v3.74383h0.15937c1.87191,-3.01451 5.09711,-4.47044 8.21427,-4.47044c7.85501,0 9.82957,4.41912 9.82957,11.07481v16.53388h-7.37961v-15.1833c0,-4.41642 -1.30197,-6.60167 -4.73246,-6.60167c-4.00854,0 -5.72379,2.23657 -5.72379,7.69564v14.09202h-7.37961v-26.88478zM443.69752,135.58576h7.38501v19.91305l9.30824,-9.6702h8.73019l-10.1348,9.87819l11.2801,17.00119h-8.94359l-7.38501,-12.01212l-2.85514,2.7579v9.25422h-7.38501zM130.59099,195.20066c8.47628,0 13.93265,5.61574 13.93265,14.19467c0,8.53031 -5.45907,14.14334 -13.93265,14.14334c-8.42496,0 -13.88133,-5.61304 -13.88133,-14.14334c-0.0027,-8.57893 5.45637,-14.19467 13.88133,-14.19467zM130.59099,217.97695c5.04309,0 6.55305,-4.31377 6.55305,-8.58163c0,-4.31377 -1.50996,-8.63025 -6.55305,-8.63025c-4.99447,0 -6.50172,4.31918 -6.50172,8.63025c0,4.26785 1.50725,8.58163 6.50172,8.58163zM149.97191,200.86772h-4.42182v-4.94045h4.42182v-2.0826c0,-4.72975 2.96319,-8.16025 8.99761,-8.16025c1.29656,0 2.64985,0.15937 3.90049,0.20799v5.51039c-0.89753,-0.10382 -1.80036,-0.15523 -2.70387,-0.15397c-1.97726,0 -2.80922,0.83196 -2.80922,3.06853v1.6099h5.09711v4.94045h-5.09711v21.94163h-7.38231v-21.94163zM180.94086,210.4866c0,4.94045 3.84647,6.86638 8.21427,6.86638c2.86324,0 7.22834,-0.83466 7.22834,-4.62981c0,-4.00044 -5.56172,-4.67843 -11.02079,-6.13437c-5.51039,-1.45593 -11.07751,-3.58446 -11.07751,-10.55078c0,-7.593 7.17432,-11.23418 13.88673,-11.23418c7.74426,0 14.86996,3.38187 14.86996,11.9581h-7.90363c-0.25931,-4.47044 -3.43319,-5.61304 -7.33098,-5.61304c-2.59853,0 -5.61574,1.09127 -5.61574,4.21113c0,2.86595 1.76657,3.2252 11.07481,5.61574c2.70387,0.67799 11.02619,2.39594 11.02619,10.8182c0,6.80966 -5.35643,11.90407 -15.44531,11.90407c-8.21697,0 -15.91261,-4.05446 -15.80727,-13.20874h7.90093zM225.4427,205.39218c-0.47,-3.01451 -2.39324,-4.62981 -5.45907,-4.62981c-4.72975,0 -6.29103,4.78378 -6.29103,8.7356c0,3.84917 1.50725,8.47628 6.13166,8.47628c3.43319,0 5.40775,-2.18525 5.87505,-5.45907h7.1257c-0.93461,7.12299 -5.87505,11.02079 -12.94672,11.02079c-8.11162,0 -13.5707,-5.72109 -13.5707,-13.78139c0,-8.37094 4.99177,-14.55933 13.72736,-14.55933c6.34236,0 12.16609,3.32785 12.63609,10.19153h-7.22834zM248.94021,195.20066c8.47898,0 13.93806,5.61574 13.93806,14.19467c0,8.53031 -5.45907,14.14334 -13.93806,14.14334c-8.42226,0 -13.88133,-5.61304 -13.88133,-14.14334c0,-8.57893 5.45637,-14.19467 13.88133,-14.19467zM248.94021,217.97695c5.04309,0 6.55305,-4.31377 6.55305,-8.58163c0,-4.31377 -1.50996,-8.63025 -6.55305,-8.63025c-4.99177,0 -6.49902,4.31918 -6.49902,8.63025c-0.0027,4.26785 1.50725,8.58163 6.49902,8.58163zM275.29015,195.92727h5.40775v4.94045h-5.40775v13.31138c0,2.49859 0.62127,3.11986 3.11715,3.11986c0.78064,0 1.50996,-0.05402 2.2906,-0.20799v5.77241c-1.25064,0.21069 -2.86054,0.26201 -4.31648,0.26201c-4.52717,0 -8.47358,-1.03995 -8.47358,-6.39638v-15.85859h-4.47314v-4.94045h4.47314v-8.0576h7.37961v8.0549zM283.60166,185.68442h7.38501v37.12763h-7.38501zM312.08284,209.65464c-1.25064,1.09127 -3.85187,1.1453 -6.13977,1.56398c-2.28519,0.4646 -4.3624,1.24524 -4.3624,3.94641c0,2.7579 2.13123,3.43319 4.52176,3.43319c5.77241,0 5.9831,-4.57309 5.9831,-6.18569v-2.7579zM295.02763,204.19827c0.41598,-6.91771 6.60437,-8.99761 12.63609,-8.99761c5.35373,0 11.80143,1.19932 11.80143,7.64432v13.98938c0,2.44456 0.25931,4.88912 0.93461,5.9777h-7.48495c-0.27912,-0.84142 -0.45243,-1.7143 -0.51592,-2.59853c-2.34192,2.44186 -5.77241,3.32514 -9.04893,3.32514c-5.09711,0 -9.15428,-2.54721 -9.15428,-8.0576c0,-6.08574 4.57309,-7.53898 9.15428,-8.16295c4.52176,-0.67259 8.7356,-0.51592 8.7356,-3.53584c0,-3.17118 -2.18525,-3.64118 -4.78378,-3.64118c-2.81192,0 -4.63251,1.1453 -4.89183,4.05716zM323.7276,195.92727h7.01765v3.74653h0.15937c1.87191,-3.01721 5.09711,-4.47314 8.21427,-4.47314c7.84961,0 9.82957,4.42182 9.82957,11.07751v16.53388h-7.38501v-15.1806c0,-4.42182 -1.29656,-6.60167 -4.73246,-6.60167c-3.99774,0 -5.71838,2.23387 -5.71838,7.69564v14.08932h-7.37961v-26.88748zM372.5324,219.38156h-0.09994c-1.72065,2.91187 -4.73246,4.15711 -8.16565,4.15711c-8.10892,0 -12.06614,-6.96633 -12.06614,-14.39996c0,-7.22834 4.00854,-13.93806 11.91218,-13.93806c3.17118,0 6.28833,1.35059 8.00898,4.00584h-0.05402h0.09994v-13.52207h7.38501v37.12493h-7.02305v-3.42779zM366.0874,200.76237c-4.8378,0 -6.49902,4.16251 -6.49902,8.58163c0,4.21383 1.92594,8.63025 6.49902,8.63025c4.89183,0 6.34776,-4.26245 6.34776,-8.68427c-0.0027,-4.3651 -1.56398,-8.5276 -6.34776,-8.5276z"/></g></g></svg>