<?xml version="1.0" encoding="UTF-8"?>
<svg xmlns="http://www.w3.org/2000/svg" viewBox="0 0 80 39.999892" role="img" aria-label="NovaHire icon"><g transform="translate(-4.958677 -23.140449) scale(0.909091)" fill="#FFFFFF"><g xmlns="http://www.w3.org/2000/svg" transform="translate(0,-952.36218)"><path d="m 49.864404,980.36891 c -0.49087,0.062 -0.89362,0.5359 -0.87439,1.03 l 0,4.9941 c -0.007,0.5277 0.4713,1.0131 0.9993,1.0131 0.528,0 1.00677,-0.4854 0.9993,-1.0131 l 0,-4.9941 c 0.0226,-0.5775 -0.55053,-1.1026 -1.12421,-1.03 z m -6.5267,2.8091 c -0.66636,0.083 -1.08008,0.9641 -0.71824,1.5295 l 2.49825,4.3075 c 0.26162,0.4575 0.91621,0.636 1.37404,0.3745 0.45783,-0.2615 0.63636,-0.9158 0.37474,-1.3734 l -2.49826,-4.3074 c -0.17714,-0.335 -0.55832,-0.5508 -0.93684,-0.5307 -0.0312,0 -0.0625,0 -0.0936,0 z m 12.95971,0 c -0.29291,0.062 -0.55317,0.263 -0.68702,0.5307 l -2.49826,4.3074 c -0.26162,0.4576 -0.083,1.1119 0.37474,1.3734 0.45783,0.2615 1.11242,0.083 1.37404,-0.3745 l 2.49826,-4.3075 c 0.4072,-0.6357 -0.21891,-1.625 -0.96808,-1.5295 -0.0312,0 -0.0625,0 -0.0936,0 z m -18.11236,6.4612 c -4.34777,-0.1938 -8.80847,0.013 -11.83549,0.9364 -3.67766,1.1961 -7.06631,2.8174 -9.39963,5.1502 -2.969209,0.491 -5.506879,0.403 -7.5884592,1.2173 -1.04079,0.4071 -1.9829,1.1068 -2.56071,2.1849 -0.91433,2.55139 -1.36675,6.19749 0.4372,8.52099 0.82417,1.0251 2.00196,1.5581 3.2165002,1.8105 2.09952,0.4358 4.461299,0.1609 6.589149,0.031 2.37619,3.2249 7.7063,4.7906 11.27333,5.8681 1.90404,0.5324 3.85281,-0.2949 4.96523,-1.4982 1.00319,-1.1275 1.54684,-2.8141 1.78001,-4.7444 1.75817,1.2312 4.32653,3.2426 8.11933,2.3722 2.24732,-0.6011 3.25052,-2.5103 3.90353,-4.0263 0.83077,-2.101 0.99636,-4.2694 0.7807,-6.1176 -0.18498,-5.40409 -4.20519,-11.39559 -9.68069,-11.70499 z m 23.60852,0 c -4.48097,0.1948 -8.5838,4.2709 -9.71197,11.70499 -0.2332,2.0393 0.0828,4.3946 0.7807,6.1176 0.67941,1.6575 1.85323,3.2438 3.90353,4.0263 3.78345,0.8682 6.36008,-1.1395 8.11933,-2.3722 0.23295,1.9311 0.80773,3.6165 1.81124,4.7444 1.3129,1.4378 3.41601,1.9627 4.96528,1.4982 3.9256,-1.2322 8.57424,-2.9229 11.27333,-5.8681 2.12153,0.1298 4.4584,0.405 6.55792,-0.031 1.21454,-0.2523 2.39233,-0.7854 3.21651,-1.8105 1.39033,-2.5187 1.83662,-5.826 0.43719,-8.52099 -0.57781,-1.0781 -1.48869,-1.7778 -2.52948,-2.1849 -2.08158,-0.8143 -4.61925,-0.7263 -7.58846,-1.2173 -2.42276,-2.261 -6.40024,-4.4415 -9.39963,-5.1814 -3.7924,-1.0619 -7.03716,-1.1311 -11.83549,-0.9052 z m -23.60852,1.9977 c 3.5363,0.2525 7.07639,3.059 7.71337,9.98819 0.22236,1.7018 -0.0713,3.6124 -0.6558,5.0563 -0.60729,1.4535 -1.52631,2.4576 -2.56071,2.8404 -2.55476,0.2082 -5.82744,-0.8271 -6.99511,-2.8716 -1.63375,-1.563 -3.30146,-2.6926 -5.15266,-3.1525 -2.09276,-0.4626 -4.13063,-0.035 -5.8709,0.8115 -0.53413,0.1839 -0.82069,0.8781 -0.57162,1.3849 0.24907,0.5068 0.97396,0.7045 1.44601,0.3943 1.71202,-0.8425 3.14651,-0.9988 4.52809,-0.6555 1.48679,0.416 2.52214,1.2474 3.21655,2.0601 0.0597,2.329 -0.61437,4.0623 -1.49895,5.0565 -0.7814,0.77 -1.80461,1.2352 -2.84172,0.9055 -3.70052,-1.1052 -8.06804,-2.8665 -9.96179,-4.6196 -0.84274,-3.6305 -1.01933,-8.0979 -0.96808,-10.98709 1.74313,-2.457 4.76772,-4.4156 8.80636,-5.3686 4.77128,-1.0447 8.01878,-1.2164 11.36696,-0.8428 z m 34.97558,0.8428 c 4.02031,0.9488 7.0282,2.8964 8.77513,5.3374 0.0524,2.87919 -0.0672,7.35119 -0.90562,10.98699 -1.87093,1.7653 -6.26645,3.538 -9.99302,4.6509 -1.19958,0.3775 -2.12079,-0.074 -2.873,-0.9055 -0.88458,-0.9942 -1.55859,-2.7275 -1.49895,-5.0565 0.50387,-0.9711 2.20537,-1.7887 3.24778,-2.0601 1.38158,-0.3433 2.78485,-0.187 4.49686,0.6555 0.47205,0.3102 1.19695,0.1125 1.44601,-0.3943 0.24907,-0.5068 -0.0375,-1.201 -0.57162,-1.3849 -1.90091,-0.9115 -3.95574,-1.2729 -5.8709,-0.8115 -1.8512,0.4599 -3.5189,1.5895 -5.15265,3.1525 -1.39284,2.1588 -5.2721,3.1878 -6.96389,2.8716 -1.0344,-0.3828 -1.98465,-1.3869 -2.59194,-2.8404 -0.67793,-1.7333 -0.95324,-3.3806 -0.65579,-5.0563 1.04294,-6.80439 4.29394,-9.78769 7.71336,-9.98819 3.91839,-0.2816 7.82108,-0.1155 11.39824,0.8428 z m -28.04292,23.22229 -2.49825,4.3386 c -0.26162,0.4576 -0.083,1.1119 0.37473,1.3734 0.45783,0.2615 1.11243,0.083 1.37404,-0.3746 l 2.49826,-4.3386 c 0.29561,-0.466 0.0425,-1.1226 -0.41076,-1.4005 -0.6712,-0.2172 -0.78736,-0.033 -1.33802,0.4017 z m 8.3735,-0.3725 c -0.43537,0.2759 -0.64346,0.9122 -0.37908,1.3713 l 2.49826,4.3386 c 0.26161,0.4576 0.91621,0.6361 1.37404,0.3746 0.45783,-0.2615 0.63635,-0.9158 0.37474,-1.3734 l -2.49826,-4.3386 c -0.51129,-0.5932 -0.90894,-0.5645 -1.3697,-0.3725 z m -3.62681,1.9956 c -0.49087,0.062 -0.89362,0.5359 -0.87439,1.03 l 0,4.9941 c -0.007,0.5277 0.4713,1.013 0.9993,1.013 0.528,0 1.00677,-0.4853 0.9993,-1.013 l 0,-4.9941 c 0.0226,-0.5775 -0.55053,-1.1026 -1.12421,-1.03 z" style="text-indent: 0; text-transform: none; direction: ltr; block-progression: tb; baseline-shift: baseline; color: ; enable-background: accumulate" fill="#FFFFFF" fill-opacity="1" stroke="none" marker="none" visibility="visible" display="inline" overflow="visible"></path></g></g></svg>